<svg width="87" height="74" viewBox="0 0 87 74" fill="none" xmlns="http://www.w3.org/2000/svg">
<path d="M19.6185 12.886V54.9049C19.5917 57.5464 18.5463 60.0705 16.7097 61.9287C14.873 63.7869 12.3933 64.8292 9.80927 64.8292C7.22522 64.8292 4.74553 63.7869 2.90886 61.9287C1.07218 60.0705 0.0268731 57.5464 0 54.9049V12.886C0.00168785 10.2267 1.03654 7.6769 2.87697 5.79746C4.7174 3.91802 7.21269 2.86284 9.81404 2.86399C11.4408 2.85957 13.0425 3.27359 14.4717 4.06795C14.494 4.07771 14.5036 4.08964 14.5142 4.08964C14.5197 4.09582 14.5272 4.09969 14.5354 4.10049C15.3488 4.5542 16.0925 5.128 16.7422 5.80337C17.6542 6.73219 18.3777 7.83599 18.8714 9.05144C19.365 10.2669 19.6189 11.57 19.6185 12.886Z" fill="url(#paint0_linear_78_2)"/>
<path d="M42.0358 21.9645V63.9725C42.0358 65.2894 41.7821 66.5933 41.2891 67.8098C40.7962 69.0265 40.0738 70.1318 39.1629 71.063C38.2521 71.9942 37.1707 72.7328 35.9807 73.2367C34.7906 73.7407 33.5152 74 32.2271 74C30.9389 74 29.6634 73.7407 28.4734 73.2367C27.2833 72.7328 26.2021 71.9942 25.2913 71.063C24.3804 70.1318 23.6579 69.0265 23.1649 67.8098C22.672 66.5933 22.4183 65.2894 22.4183 63.9725V21.9645C22.418 20.6468 22.6717 19.342 23.1648 18.1247C23.6579 16.9073 24.3808 15.8012 25.2922 14.8695C26.2036 13.9378 27.2856 13.1987 28.4763 12.6947C29.6671 12.1906 30.9435 11.9312 32.2324 11.9315C32.5825 11.9315 32.922 11.9532 33.2509 11.9847H33.2732C35.6797 12.2522 37.9049 13.4186 39.522 15.2601C41.1392 17.1016 42.0343 19.4897 42.0358 21.9645Z" fill="url(#paint1_linear_78_2)"/>
<path d="M64.5815 10.0225V52.0414C64.5815 54.7008 63.5481 57.2513 61.7086 59.1319C59.8691 61.0124 57.3742 62.0689 54.7728 62.0689C52.1714 62.0689 49.6765 61.0124 47.837 59.1319C45.9974 57.2513 44.9641 54.7008 44.9641 52.0414V10.0225C44.9641 8.70544 45.2179 7.40132 45.7113 6.18468C46.2047 4.96804 46.9277 3.86274 47.8392 2.93196C48.7506 2.00119 49.8326 1.2632 51.0232 0.760179C52.2138 0.257162 53.4897 -0.00101571 54.7781 0.000409649C55.1829 -0.00385349 55.5873 0.0251636 55.9876 0.0871806H56.0088C58.1661 0.354009 60.1728 1.35494 61.7063 2.92893C62.6183 3.85988 63.3418 4.96564 63.8351 6.18287C64.3286 7.4001 64.5822 8.70487 64.5815 10.0225Z" fill="url(#paint2_linear_78_2)"/>
<path d="M87 21.486V63.4951C87 64.812 86.7462 66.1159 86.2533 67.3324C85.7603 68.5491 85.0378 69.6544 84.1271 70.5856C83.2162 71.5168 82.1349 72.2554 80.9449 72.7593C79.7548 73.2632 78.4793 73.5226 77.1912 73.5226C75.9031 73.5226 74.6276 73.2632 73.4376 72.7593C72.2475 72.2554 71.1662 71.5168 70.2554 70.5856C69.3446 69.6544 68.622 68.5491 68.1291 67.3324C67.6362 66.1159 67.3825 64.812 67.3825 63.4951V21.486C67.3823 20.1683 67.6361 18.8637 68.1292 17.6463C68.6224 16.429 69.3453 15.3229 70.2566 14.3913C71.168 13.4596 72.25 12.7207 73.4407 12.2165C74.6314 11.7124 75.9077 11.4529 77.1966 11.4531C78.4946 11.4476 79.7799 11.7138 80.9736 12.2351H80.9842C80.9898 12.2413 80.9973 12.2452 81.0055 12.2459C82.1734 12.7449 83.2334 13.4747 84.1247 14.3935C85.0394 15.3222 85.7646 16.4274 86.2583 17.6449C86.7518 18.8624 87.0039 20.168 87 21.486Z" fill="url(#paint3_linear_78_2)"/>
<defs>
<linearGradient id="paint0_linear_78_2" x1="9.80927" y1="1.68661" x2="9.80927" y2="58.3228" gradientUnits="userSpaceOnUse">
<stop stop-color="#01497C"/>
<stop offset="1" stop-color="white"/>
</linearGradient>
<linearGradient id="paint1_linear_78_2" x1="32.2271" y1="12.8626" x2="32.2271" y2="75.7379" gradientUnits="userSpaceOnUse">
<stop stop-color="#01497C"/>
<stop offset="1" stop-color="white"/>
</linearGradient>
<linearGradient id="paint2_linear_78_2" x1="54.7728" y1="1.67586" x2="54.7728" y2="58.4068" gradientUnits="userSpaceOnUse">
<stop stop-color="#014F86"/>
<stop offset="1" stop-color="white"/>
</linearGradient>
<linearGradient id="paint3_linear_78_2" x1="77.1912" y1="12.8805" x2="77.1912" y2="75.7571" gradientUnits="userSpaceOnUse">
<stop stop-color="#013A63"/>
<stop offset="1" stop-color="white"/>
</linearGradient>
</defs>
</svg>
